<?xml version="1.0" encoding="UTF-8" standalone="no"?>
<!-- Uploaded to: SVG Repo, www.svgrepo.com, Generator: SVG Repo Mixer Tools -->

<svg
   width="800px"
   height="800px"
   viewBox="0 0 24 24"
   fill="none"
   version="1.1"
   id="svg3"
   sodipodi:docname="github-square-svgrepo-com.svg"
   inkscape:version="1.3 (0e150ed6c4, 2023-07-21)"
   xmlns:inkscape="http://www.inkscape.org/namespaces/inkscape"
   xmlns:sodipodi="http://sodipodi.sourceforge.net/DTD/sodipodi-0.dtd"
   xmlns="http://www.w3.org/2000/svg"
   xmlns:svg="http://www.w3.org/2000/svg">
  <defs
     id="defs3" />
  <sodipodi:namedview
     id="namedview3"
     pagecolor="#ffffff"
     bordercolor="#000000"
     borderopacity="0.25"
     inkscape:showpageshadow="2"
     inkscape:pageopacity="0.0"
     inkscape:pagecheckerboard="0"
     inkscape:deskcolor="#d1d1d1"
     showgrid="false"
     inkscape:zoom="1.01625"
     inkscape:cx="334.56335"
     inkscape:cy="417.71218"
     inkscape:window-width="1920"
     inkscape:window-height="1009"
     inkscape:window-x="-8"
     inkscape:window-y="-8"
     inkscape:window-maximized="1"
     inkscape:current-layer="svg3" />
  <path
     opacity="0.1"
     fill-rule="evenodd"
     clip-rule="evenodd"
     d="M12 3C4.5885 3 3 4.5885 3 12C3 19.4115 4.5885 21 12 21C19.4115 21 21 19.4115 21 12C21 4.5885 19.4115 3 12 3ZM14.2695 9.03471C15.1872 8.34452 15.7204 8.25293 15.9299 8.25017C16.1326 8.86788 16.1588 9.54654 16.0042 10.1835C15.9945 10.2234 15.9842 10.263 15.9731 10.3025C15.941 10.4168 15.9647 10.5393 16.0366 10.6333L16.0377 10.6347C16.0521 10.6537 16.0664 10.6728 16.0805 10.6922C16.5194 11.2949 16.7603 12.0687 16.7497 12.8714L16.7496 12.8747C16.7496 14.5738 16.3076 15.5644 15.6994 16.1583C15.0859 16.7572 14.2627 16.9938 13.4137 17.0968L13.3898 17.0997L13.3777 17.1014C12.443 17.2601 11.5456 17.2688 10.6078 17.1286L10.604 17.1281L10.5687 17.1233C9.72415 17.0085 8.90483 16.7616 8.29455 16.1566C7.68912 15.5564 7.25036 14.5643 7.25038 12.8747L7.25034 12.8714C7.23972 12.0687 7.48056 11.2949 7.91949 10.6922C7.93482 10.6711 7.9504 10.6503 7.96621 10.6297C8.03648 10.538 8.05962 10.4184 8.02812 10.3068L8.02599 10.2993C8.01523 10.2608 8.00513 10.2222 7.99569 10.1834C7.84087 9.54684 7.86561 8.86863 8.0659 8.25016C8.27679 8.2528 8.81228 8.34432 9.73045 9.03473C9.76619 9.0616 9.80249 9.08937 9.83937 9.11807C9.93139 9.19 10.0529 9.21205 10.1644 9.17703L10.1657 9.17661C10.2268 9.15768 10.2882 9.13972 10.3496 9.12272C11.4349 8.82255 12.5651 8.82255 13.6504 9.12272C13.7088 9.13888 13.7671 9.15592 13.8253 9.17382L13.8277 9.17457C13.9431 9.21015 14.0704 9.18836 14.1678 9.11252C14.2022 9.08578 14.2361 9.05985 14.2695 9.03471Z"
     fill="#323232"
     id="path1" />
  <path
     d="M13.717 8.88177C12.5881 8.56954 11.4119 8.56954 10.283 8.88177C10.2637 8.8871 10.2444 8.89254 10.2252 8.89808C10.1067 8.93218 9.97923 8.909 9.8807 8.83491V8.83491C8.69311 7.94193 8.07278 7.98181 7.91927 8.01161V8.01161C7.8946 8.0164 7.87585 8.03481 7.86732 8.05844C7.86516 8.06441 7.86303 8.07038 7.8609 8.07636C7.61639 8.76505 7.57904 9.52813 7.75277 10.2425C7.76289 10.2841 7.77371 10.3255 7.78525 10.3667C7.78601 10.3694 7.78677 10.3721 7.78753 10.3748C7.79754 10.4102 7.7902 10.4483 7.7678 10.4776V10.4776C7.75074 10.4998 7.73394 10.5223 7.71741 10.545C7.24479 11.1939 6.98907 12.0213 7.00036 12.8747C7.00036 16.3399 8.80396 17.1358 10.535 17.3711L10.5708 17.3758C11.5347 17.5199 12.4587 17.511 13.4195 17.3479L13.4438 17.345C15.1832 17.1339 16.9996 16.3587 16.9996 12.8747C17.0109 12.0213 16.7552 11.1939 16.2826 10.545C16.2674 10.5242 16.252 10.5035 16.2364 10.483C16.236 10.4825 16.2356 10.482 16.2352 10.4815C16.211 10.4498 16.203 10.4085 16.2138 10.3701V10.3701C16.2257 10.3277 16.2368 10.2852 16.2471 10.2425C16.421 9.52611 16.3815 8.76076 16.1329 8.07176C16.1313 8.06753 16.1298 8.06331 16.1283 8.05909C16.1195 8.03503 16.1004 8.01628 16.0752 8.01142V8.01142C15.921 7.98164 15.3041 7.94381 14.1193 8.83491V8.83491C14.0208 8.90896 13.8933 8.93197 13.7748 8.89804C13.7556 8.89252 13.7363 8.8871 13.717 8.88177Z"
     stroke="#323232"
     stroke-width="2"
     stroke-linecap="round"
     stroke-linejoin="round"
     id="path2" />
  <path
     d="M3 12C3 4.5885 4.5885 3 12 3C19.4115 3 21 4.5885 21 12C21 19.4115 19.4115 21 12 21C4.5885 21 3 19.4115 3 12Z"
     stroke="#323232"
     stroke-width="2"
     id="path3" />
  <path
     style="fill:#000000;stroke-width:0.98401"
     d="M 352.14122,732.038 C 240.85855,727.97887 177.37783,708.61698 134.38107,665.62022 98.54085,629.78 79.059438,578.80365 71.415756,500.86101 65.370272,439.21519 65.785536,349.05957 72.387962,289.7909 87.278079,156.12526 143.61546,94.476708 268.40799,75.29121 331.49426,65.592381 436.74037,64.317302 510.2091,72.361738 614.6808,83.800833 674.65754,121.41989 705.1189,194.61453 724.77863,241.85425 732.46521,299.58462 732.46521,400 c 0,60.4119 -1.98147,94.02873 -7.75642,131.59201 -19.14713,124.54293 -81.06484,181.25266 -214.00768,196.00723 -43.22274,4.79704 -102.92074,6.46824 -158.55989,4.43876 z M 450.1845,666.15553 C 566.45571,661.27412 616.90934,640.2744 641.94143,586.34284 658.44058,550.79548 665.52517,503.06198 666.82348,418.69619 668.85924,286.40978 654.84173,215.9225 619.48872,180.67252 585.40545,146.68858 521.9724,132.87489 400,132.87489 c -106.41572,0 -166.90225,10.39279 -203.9483,35.04237 -45.70791,30.41299 -63.17681,94.58579 -63.17681,232.08274 0,137.49695 17.4689,201.66975 63.17681,232.08274 28.54204,18.99121 69.35854,29.02592 134.57561,33.08531 32.5161,2.02394 84.61919,2.45429 119.55719,0.98748 z"
     id="path4"
     transform="scale(0.03)" />
  <path
     style="fill:#000000;stroke-width:0.98401;fill-opacity:0"
     d="m 369.9877,614.34198 c -38.10576,-3.86372 -64.90096,-10.38247 -85.70825,-20.85113 -47.05751,-23.67577 -72.70706,-63.67948 -81.79023,-127.56219 -0.77395,-5.44324 -1.24463,-18.71543 -1.22138,-34.44035 0.0338,-22.84625 0.27719,-26.6856 2.27446,-35.8755 3.42558,-15.76187 8.46073,-30.22046 14.98299,-43.02414 l 5.924,-11.62926 -1.17045,-10.05026 c -2.45355,-21.06767 0.0635,-48.81786 6.07495,-66.97532 2.72503,-8.23092 10.26397,-19.60075 15.31973,-23.10439 12.25484,-8.49261 31.79476,-8.9233 53.49678,-1.17914 9.65341,3.44472 24.64432,11.01335 34.83559,17.58783 l 8.16663,5.26835 8.74953,-1.81418 c 31.63614,-6.55962 68.51976,-6.55962 100.1559,0 l 8.74953,1.81418 8.16663,-5.26835 c 35.90862,-23.16497 68.65695,-29.32324 87.96982,-16.54258 4.9109,3.24988 12.78323,14.46913 15.11635,21.54307 0.89249,2.70603 2.76061,9.7909 4.15136,15.74416 3.14241,13.45139 4.27719,37.57634 2.48952,52.92637 l -1.17045,10.05026 5.92401,11.62926 c 11.65141,22.87259 16.65927,43.21488 17.48995,71.04542 2.1096,70.67876 -19.06016,125.00619 -60.75882,155.92386 -25.66967,19.0329 -55.48709,28.40691 -108.19355,34.01394 -11.93247,1.2694 -50.25167,1.76102 -60.0246,0.77009 z m 60.0246,-66.82976 c 30.66904,-3.84932 46.84362,-7.812 59.9027,-14.67578 23.76544,-12.491 37.09254,-35.85997 42.04527,-73.72604 2.27191,-17.36996 1.49537,-47.29211 -1.50774,-58.09699 -2.75009,-9.89452 -7.31563,-19.80897 -13.4221,-29.14724 -9.60842,-14.69357 -10.87595,-21.26622 -7.40082,-38.37608 2.14724,-10.57194 3.50075,-23.95264 2.57451,-25.45133 -0.86439,-1.39861 -5.72308,1.26475 -18.69449,10.24766 -17.16281,11.88552 -27.3739,13.8133 -46.92109,8.85834 -16.53326,-4.19097 -28.50498,-5.64035 -46.58854,-5.64035 -18.08356,0 -30.05528,1.44938 -46.58854,5.64035 -19.54385,4.95411 -29.6965,3.03481 -46.89239,-8.86475 -10.1127,-6.99799 -17.23502,-11.26894 -18.79231,-11.26894 -1.08292,0 0.54072,16.47597 2.60939,26.47902 3.46231,16.7419 2.06098,24.51956 -6.72519,37.32619 -5.82211,8.48624 -11.31851,20.27916 -14.06047,30.16773 -1.80392,6.50565 -2.25932,11.20276 -2.62357,27.06027 -0.68996,30.03645 3.12868,52.8372 11.94803,71.34071 8.10258,16.9997 18.13465,27.29031 34.56999,35.46094 24.98368,12.42033 75.12101,17.86828 116.56736,12.66629 z"
     id="path5"
     transform="scale(0.03)" />
  <path
     style="fill:#000000;fill-opacity:0;stroke-width:0.98401"
     d="M 345.87946,665.19022 C 213.81689,658.6868 166.66943,631.39687 146.68684,549.89339 138.17647,515.18191 133.82981,464.50651 133.82981,400 c 0,-103.70768 10.26151,-164.75228 33.90918,-201.72202 15.79918,-24.69975 43.53034,-42.06922 82.36762,-51.59114 34.90291,-8.5573 84.96223,-12.84485 149.89339,-12.83826 136.99258,0.0139 200.93848,17.46046 231.34445,63.11841 18.44382,27.69544 28.14201,66.78286 33.04109,133.16831 1.65494,22.42535 1.65494,117.30405 0,139.7294 -4.10027,55.56104 -11.06426,89.70801 -23.69249,116.17289 -12.38248,25.94982 -26.80304,40.74102 -51.76316,53.09355 -28.02689,13.87024 -59.5204,20.6505 -116.60517,25.10399 -17.32689,1.35177 -104.95007,2.01362 -126.44526,0.95509 z m 81.18081,-50.24882 c 15.08512,-1.38909 46.10563,-6.24247 55.92794,-8.75032 28.30435,-7.22675 50.60983,-19.22154 69.19285,-37.20849 24.46189,-23.67726 38.85102,-54.19436 45.22847,-95.92259 2.61183,-17.08946 3.58445,-50.90102 1.88331,-65.47033 -2.38096,-20.39159 -9.89571,-44.172 -18.8789,-59.74219 l -3.97406,-6.88807 1.07896,-8.43072 c 1.53473,-11.99212 1.33457,-32.8916 -0.42874,-44.76689 -4.69804,-31.63966 -14.74249,-48.11814 -32.39125,-53.13963 -8.47563,-2.41152 -25.53358,-1.51513 -37.44178,1.96755 -10.54122,3.08288 -29.28808,12.06964 -40.64217,19.48278 l -8.16986,5.33414 -8.12753,-1.76248 c -29.4399,-6.38413 -71.19512,-6.38413 -100.63502,0 l -8.12753,1.76248 -8.16986,-5.3693 c -11.07683,-7.27979 -29.88177,-16.27216 -40.64217,-19.43477 -11.93546,-3.50798 -28.96226,-4.40074 -37.44178,-1.96319 -9.16839,2.63557 -14.71912,6.74226 -20.10419,14.87401 -5.28043,7.97374 -6.76264,11.88208 -10.42359,27.48538 -3.1289,13.33565 -4.35884,40.57422 -2.45963,54.47186 l 1.17892,8.62692 -4.94562,9.62608 c -14.68937,28.5911 -19.51341,51.87874 -18.50978,89.35435 1.21336,45.30681 10.22278,79.02129 28.55339,106.85068 31.15981,47.30657 83.68166,69.43173 165.9973,69.92739 11.63591,0.0701 26.24846,-0.34153 32.47232,-0.91465 z"
     id="path6"
     transform="scale(0.03)" />
  <path
     style="fill:#000000;fill-opacity:0;stroke-width:0.98401"
     d="m 378.01977,548.0168 c -70.46604,-5.40724 -97.51441,-25.8898 -108.0956,-81.85614 -1.33904,-7.08253 -1.71996,-14.40829 -1.72611,-33.19633 -0.008,-23.58734 0.051,-24.29792 2.71887,-32.88667 3.20485,-10.31759 7.31309,-18.78658 14.29877,-29.47644 8.34255,-12.7662 9.64966,-20.77607 6.12177,-37.51389 -1.02664,-4.87085 -2.18956,-12.5742 -2.58426,-17.11855 -0.60138,-6.9239 -0.49574,-8.13186 0.65203,-7.45626 0.75332,0.44341 5.04201,3.27591 9.53042,6.29444 14.66597,9.8631 18.3219,11.92137 24.66123,13.88411 8.58338,2.65753 18.02833,2.48757 30.56655,-0.55005 18.58345,-4.5022 28.13348,-5.68711 45.83656,-5.68711 17.70308,0 27.25311,1.18491 45.83657,5.68711 12.53821,3.03762 21.98316,3.20758 30.56654,0.55005 6.33933,-1.96274 9.99526,-4.02101 24.66122,-13.88411 4.48842,-3.01853 8.76547,-5.84384 9.50456,-6.27845 1.11383,-0.65499 1.22235,0.62101 0.63417,7.45626 -0.3903,4.53556 -1.54157,12.23171 -2.5584,17.10256 -3.44977,16.52537 -2.08927,24.91655 6.06513,37.40782 6.82342,10.45244 11.27829,19.63757 14.41114,29.71315 2.62195,8.43245 2.68871,9.24811 2.68102,32.75603 -0.006,18.78804 -0.38708,26.1138 -1.72612,33.19633 -6.75535,35.73055 -19.52119,55.34656 -43.48045,66.81207 -11.89157,5.69062 -22.80092,8.66142 -42.73665,11.63795 -27.4691,4.10129 -44.97633,5.00701 -65.83896,3.40612 z"
     id="path7"
     transform="scale(0.03)" />
  <path
     style="fill:#000000;fill-opacity:0;stroke-width:0.98401"
     d="M 345.87946,665.19022 C 213.81689,658.6868 166.66943,631.39687 146.68684,549.89339 138.17647,515.18191 133.82981,464.50651 133.82981,400 c 0,-103.70768 10.26151,-164.75228 33.90918,-201.72202 15.79918,-24.69975 43.53034,-42.06922 82.36762,-51.59114 34.90291,-8.5573 84.96223,-12.84485 149.89339,-12.83826 136.99258,0.0139 200.93848,17.46046 231.34445,63.11841 18.44382,27.69544 28.14201,66.78286 33.04109,133.16831 1.65494,22.42535 1.65494,117.30405 0,139.7294 -4.10027,55.56104 -11.06426,89.70801 -23.69249,116.17289 -12.38248,25.94982 -26.80304,40.74102 -51.76316,53.09355 -28.02689,13.87024 -59.5204,20.6505 -116.60517,25.10399 -17.32689,1.35177 -104.95007,2.01362 -126.44526,0.95509 z m 81.18081,-50.24882 c 15.08512,-1.38909 46.10563,-6.24247 55.92794,-8.75032 28.30435,-7.22675 50.60983,-19.22154 69.19285,-37.20849 24.46189,-23.67726 38.85102,-54.19436 45.22847,-95.92259 2.61183,-17.08946 3.58445,-50.90102 1.88331,-65.47033 -2.38096,-20.39159 -9.89571,-44.172 -18.8789,-59.74219 l -3.97406,-6.88807 1.07896,-8.43072 c 1.53473,-11.99212 1.33457,-32.8916 -0.42874,-44.76689 -4.69804,-31.63966 -14.74249,-48.11814 -32.39125,-53.13963 -8.47563,-2.41152 -25.53358,-1.51513 -37.44178,1.96755 -10.54122,3.08288 -29.28808,12.06964 -40.64217,19.48278 l -8.16986,5.33414 -8.12753,-1.76248 c -29.4399,-6.38413 -71.19512,-6.38413 -100.63502,0 l -8.12753,1.76248 -8.16986,-5.3693 c -11.07683,-7.27979 -29.88177,-16.27216 -40.64217,-19.43477 -11.93546,-3.50798 -28.96226,-4.40074 -37.44178,-1.96319 -9.16839,2.63557 -14.71912,6.74226 -20.10419,14.87401 -5.28043,7.97374 -6.76264,11.88208 -10.42359,27.48538 -3.1289,13.33565 -4.35884,40.57422 -2.45963,54.47186 l 1.17892,8.62692 -4.94562,9.62608 c -14.68937,28.5911 -19.51341,51.87874 -18.50978,89.35435 1.21336,45.30681 10.22278,79.02129 28.55339,106.85068 31.15981,47.30657 83.68166,69.43173 165.9973,69.92739 11.63591,0.0701 26.24846,-0.34153 32.47232,-0.91465 z"
     id="path8"
     transform="scale(0.03)" />
  <path
     style="fill:#000000;fill-opacity:0;stroke-width:0.98401"
     d="m 369.9877,614.34198 c -38.10576,-3.86372 -64.90096,-10.38247 -85.70825,-20.85113 -47.05751,-23.67577 -72.70706,-63.67948 -81.79023,-127.56219 -0.77395,-5.44324 -1.24463,-18.71543 -1.22138,-34.44035 0.0338,-22.84625 0.27719,-26.6856 2.27446,-35.8755 3.42558,-15.76187 8.46073,-30.22046 14.98299,-43.02414 l 5.924,-11.62926 -1.17045,-10.05026 c -2.45355,-21.06767 0.0635,-48.81786 6.07495,-66.97532 2.72503,-8.23092 10.26397,-19.60075 15.31973,-23.10439 12.25484,-8.49261 31.79476,-8.9233 53.49678,-1.17914 9.65341,3.44472 24.64432,11.01335 34.83559,17.58783 l 8.16663,5.26835 8.74953,-1.81418 c 31.63614,-6.55962 68.51976,-6.55962 100.1559,0 l 8.74953,1.81418 8.16663,-5.26835 c 35.90862,-23.16497 68.65695,-29.32324 87.96982,-16.54258 4.9109,3.24988 12.78323,14.46913 15.11635,21.54307 0.89249,2.70603 2.76061,9.7909 4.15136,15.74416 3.14241,13.45139 4.27719,37.57634 2.48952,52.92637 l -1.17045,10.05026 5.92401,11.62926 c 11.65141,22.87259 16.65927,43.21488 17.48995,71.04542 2.1096,70.67876 -19.06016,125.00619 -60.75882,155.92386 -25.66967,19.0329 -55.48709,28.40691 -108.19355,34.01394 -11.93247,1.2694 -50.25167,1.76102 -60.0246,0.77009 z m 60.0246,-66.82976 c 30.66904,-3.84932 46.84362,-7.812 59.9027,-14.67578 23.76544,-12.491 37.09254,-35.85997 42.04527,-73.72604 2.27191,-17.36996 1.49537,-47.29211 -1.50774,-58.09699 -2.75009,-9.89452 -7.31563,-19.80897 -13.4221,-29.14724 -9.60842,-14.69357 -10.87595,-21.26622 -7.40082,-38.37608 2.14724,-10.57194 3.50075,-23.95264 2.57451,-25.45133 -0.86439,-1.39861 -5.72308,1.26475 -18.69449,10.24766 -17.16281,11.88552 -27.3739,13.8133 -46.92109,8.85834 -16.53326,-4.19097 -28.50498,-5.64035 -46.58854,-5.64035 -18.08356,0 -30.05528,1.44938 -46.58854,5.64035 -19.54385,4.95411 -29.6965,3.03481 -46.89239,-8.86475 -10.1127,-6.99799 -17.23502,-11.26894 -18.79231,-11.26894 -1.08292,0 0.54072,16.47597 2.60939,26.47902 3.46231,16.7419 2.06098,24.51956 -6.72519,37.32619 -5.82211,8.48624 -11.31851,20.27916 -14.06047,30.16773 -1.80392,6.50565 -2.25932,11.20276 -2.62357,27.06027 -0.68996,30.03645 3.12868,52.8372 11.94803,71.34071 8.10258,16.9997 18.13465,27.29031 34.56999,35.46094 24.98368,12.42033 75.12101,17.86828 116.56736,12.66629 z"
     id="path9"
     transform="scale(0.03)" />
  <path
     style="fill:#000000;fill-opacity:0;stroke-width:0.98401"
     d="m 369.9877,614.34198 c -38.10576,-3.86372 -64.90096,-10.38247 -85.70825,-20.85113 -47.05751,-23.67577 -72.70706,-63.67948 -81.79023,-127.56219 -0.77395,-5.44324 -1.24463,-18.71543 -1.22138,-34.44035 0.0338,-22.84625 0.27719,-26.6856 2.27446,-35.8755 3.42558,-15.76187 8.46073,-30.22046 14.98299,-43.02414 l 5.924,-11.62926 -1.17045,-10.05026 c -2.45355,-21.06767 0.0635,-48.81786 6.07495,-66.97532 2.72503,-8.23092 10.26397,-19.60075 15.31973,-23.10439 12.25484,-8.49261 31.79476,-8.9233 53.49678,-1.17914 9.65341,3.44472 24.64432,11.01335 34.83559,17.58783 l 8.16663,5.26835 8.74953,-1.81418 c 31.63614,-6.55962 68.51976,-6.55962 100.1559,0 l 8.74953,1.81418 8.16663,-5.26835 c 35.90862,-23.16497 68.65695,-29.32324 87.96982,-16.54258 4.9109,3.24988 12.78323,14.46913 15.11635,21.54307 0.89249,2.70603 2.76061,9.7909 4.15136,15.74416 3.14241,13.45139 4.27719,37.57634 2.48952,52.92637 l -1.17045,10.05026 5.92401,11.62926 c 11.65141,22.87259 16.65927,43.21488 17.48995,71.04542 2.1096,70.67876 -19.06016,125.00619 -60.75882,155.92386 -25.66967,19.0329 -55.48709,28.40691 -108.19355,34.01394 -11.93247,1.2694 -50.25167,1.76102 -60.0246,0.77009 z m 60.0246,-66.82976 c 30.66904,-3.84932 46.84362,-7.812 59.9027,-14.67578 23.76544,-12.491 37.09254,-35.85997 42.04527,-73.72604 2.27191,-17.36996 1.49537,-47.29211 -1.50774,-58.09699 -2.75009,-9.89452 -7.31563,-19.80897 -13.4221,-29.14724 -9.60842,-14.69357 -10.87595,-21.26622 -7.40082,-38.37608 2.14724,-10.57194 3.50075,-23.95264 2.57451,-25.45133 -0.86439,-1.39861 -5.72308,1.26475 -18.69449,10.24766 -17.16281,11.88552 -27.3739,13.8133 -46.92109,8.85834 -16.53326,-4.19097 -28.50498,-5.64035 -46.58854,-5.64035 -18.08356,0 -30.05528,1.44938 -46.58854,5.64035 -19.54385,4.95411 -29.6965,3.03481 -46.89239,-8.86475 -10.1127,-6.99799 -17.23502,-11.26894 -18.79231,-11.26894 -1.08292,0 0.54072,16.47597 2.60939,26.47902 3.46231,16.7419 2.06098,24.51956 -6.72519,37.32619 -5.82211,8.48624 -11.31851,20.27916 -14.06047,30.16773 -1.80392,6.50565 -2.25932,11.20276 -2.62357,27.06027 -0.68996,30.03645 3.12868,52.8372 11.94803,71.34071 8.10258,16.9997 18.13465,27.29031 34.56999,35.46094 24.98368,12.42033 75.12101,17.86828 116.56736,12.66629 z"
     id="path10"
     transform="scale(0.03)" />
  <path
     style="fill:#000000;fill-opacity:0;stroke-width:0.98401"
     d="m 369.9877,614.34198 c -38.10576,-3.86372 -64.90096,-10.38247 -85.70825,-20.85113 -47.05751,-23.67577 -72.70706,-63.67948 -81.79023,-127.56219 -0.77395,-5.44324 -1.24463,-18.71543 -1.22138,-34.44035 0.0338,-22.84625 0.27719,-26.6856 2.27446,-35.8755 3.42558,-15.76187 8.46073,-30.22046 14.98299,-43.02414 l 5.924,-11.62926 -1.17045,-10.05026 c -2.45355,-21.06767 0.0635,-48.81786 6.07495,-66.97532 2.72503,-8.23092 10.26397,-19.60075 15.31973,-23.10439 12.25484,-8.49261 31.79476,-8.9233 53.49678,-1.17914 9.65341,3.44472 24.64432,11.01335 34.83559,17.58783 l 8.16663,5.26835 8.74953,-1.81418 c 31.63614,-6.55962 68.51976,-6.55962 100.1559,0 l 8.74953,1.81418 8.16663,-5.26835 c 35.90862,-23.16497 68.65695,-29.32324 87.96982,-16.54258 4.9109,3.24988 12.78323,14.46913 15.11635,21.54307 0.89249,2.70603 2.76061,9.7909 4.15136,15.74416 3.14241,13.45139 4.27719,37.57634 2.48952,52.92637 l -1.17045,10.05026 5.92401,11.62926 c 11.65141,22.87259 16.65927,43.21488 17.48995,71.04542 2.1096,70.67876 -19.06016,125.00619 -60.75882,155.92386 -25.66967,19.0329 -55.48709,28.40691 -108.19355,34.01394 -11.93247,1.2694 -50.25167,1.76102 -60.0246,0.77009 z m 60.0246,-66.82976 c 30.66904,-3.84932 46.84362,-7.812 59.9027,-14.67578 23.76544,-12.491 37.09254,-35.85997 42.04527,-73.72604 2.27191,-17.36996 1.49537,-47.29211 -1.50774,-58.09699 -2.75009,-9.89452 -7.31563,-19.80897 -13.4221,-29.14724 -9.60842,-14.69357 -10.87595,-21.26622 -7.40082,-38.37608 2.14724,-10.57194 3.50075,-23.95264 2.57451,-25.45133 -0.86439,-1.39861 -5.72308,1.26475 -18.69449,10.24766 -17.16281,11.88552 -27.3739,13.8133 -46.92109,8.85834 -16.53326,-4.19097 -28.50498,-5.64035 -46.58854,-5.64035 -18.08356,0 -30.05528,1.44938 -46.58854,5.64035 -19.54385,4.95411 -29.6965,3.03481 -46.89239,-8.86475 -10.1127,-6.99799 -17.23502,-11.26894 -18.79231,-11.26894 -1.08292,0 0.54072,16.47597 2.60939,26.47902 3.46231,16.7419 2.06098,24.51956 -6.72519,37.32619 -5.82211,8.48624 -11.31851,20.27916 -14.06047,30.16773 -1.80392,6.50565 -2.25932,11.20276 -2.62357,27.06027 -0.68996,30.03645 3.12868,52.8372 11.94803,71.34071 8.10258,16.9997 18.13465,27.29031 34.56999,35.46094 24.98368,12.42033 75.12101,17.86828 116.56736,12.66629 z"
     id="path12"
     transform="scale(0.03)" />
  <path
     style="fill:#000000;fill-opacity:1;stroke-width:0.98401"
     d="m 369.9877,614.34198 c -38.10576,-3.86372 -64.90096,-10.38247 -85.70825,-20.85113 -47.05751,-23.67577 -72.70706,-63.67948 -81.79023,-127.56219 -0.77395,-5.44324 -1.24463,-18.71543 -1.22138,-34.44035 0.0338,-22.84625 0.27719,-26.6856 2.27446,-35.8755 3.42558,-15.76187 8.46073,-30.22046 14.98299,-43.02414 l 5.924,-11.62926 -1.17045,-10.05026 c -2.45355,-21.06767 0.0635,-48.81786 6.07495,-66.97532 2.72503,-8.23092 10.26397,-19.60075 15.31973,-23.10439 12.25484,-8.49261 31.79476,-8.9233 53.49678,-1.17914 9.65341,3.44472 24.64432,11.01335 34.83559,17.58783 l 8.16663,5.26835 8.74953,-1.81418 c 31.63614,-6.55962 68.51976,-6.55962 100.1559,0 l 8.74953,1.81418 8.16663,-5.26835 c 35.90862,-23.16497 68.65695,-29.32324 87.96982,-16.54258 4.9109,3.24988 12.78323,14.46913 15.11635,21.54307 0.89249,2.70603 2.76061,9.7909 4.15136,15.74416 3.14241,13.45139 4.27719,37.57634 2.48952,52.92637 l -1.17045,10.05026 5.92401,11.62926 c 11.65141,22.87259 16.65927,43.21488 17.48995,71.04542 2.1096,70.67876 -19.06016,125.00619 -60.75882,155.92386 -25.66967,19.0329 -55.48709,28.40691 -108.19355,34.01394 -11.93247,1.2694 -50.25167,1.76102 -60.0246,0.77009 z m 60.0246,-66.82976 c 30.66904,-3.84932 46.84362,-7.812 59.9027,-14.67578 23.76544,-12.491 37.09254,-35.85997 42.04527,-73.72604 2.27191,-17.36996 1.49537,-47.29211 -1.50774,-58.09699 -2.75009,-9.89452 -7.31563,-19.80897 -13.4221,-29.14724 -9.60842,-14.69357 -10.87595,-21.26622 -7.40082,-38.37608 2.14724,-10.57194 3.50075,-23.95264 2.57451,-25.45133 -0.86439,-1.39861 -5.72308,1.26475 -18.69449,10.24766 -17.16281,11.88552 -27.3739,13.8133 -46.92109,8.85834 -16.53326,-4.19097 -28.50498,-5.64035 -46.58854,-5.64035 -18.08356,0 -30.05528,1.44938 -46.58854,5.64035 -19.54385,4.95411 -29.6965,3.03481 -46.89239,-8.86475 -10.1127,-6.99799 -17.23502,-11.26894 -18.79231,-11.26894 -1.08292,0 0.54072,16.47597 2.60939,26.47902 3.46231,16.7419 2.06098,24.51956 -6.72519,37.32619 -5.82211,8.48624 -11.31851,20.27916 -14.06047,30.16773 -1.80392,6.50565 -2.25932,11.20276 -2.62357,27.06027 -0.68996,30.03645 3.12868,52.8372 11.94803,71.34071 8.10258,16.9997 18.13465,27.29031 34.56999,35.46094 24.98368,12.42033 75.12101,17.86828 116.56736,12.66629 z"
     id="path13"
     transform="scale(0.03)" />
</svg>
